{
  "title": "Still.Alice.2014.DVDScr.XviD.AC3-OSCARS2014",
  "uid": 11580644,
  "size": 1581677739,
  "categoryP": "video",
  "categoryS": "movies",
  "magnet": "?xt=urn:btih:33b5d764441e560da452c0f4717f1dab70e03ae3&amp;dn=Still.Alice.2014.DVDScr.XviD.AC3-OSCARS2014&amp;tr=udp%3A%2F%2Ftracker.openbittorrent.com%3A80&amp;tr=udp%3A%2F%2Fopen.demonii.com%3A1337&amp;tr=udp%3A%2F%2Ftracker.coppersurfer.tk%3A6969&amp;tr=udp%3A%2F%2Fexodus.desync.com%3A6969",
  "seeders": 180,
  "leechers": 1,
  "uploader": "OSCARS2014",
  "files": -1,
  "time": 1417122969,
  "description": "Hello\nIm a specialized robot created to satisfy your 2014 OSCARS needs !\nI present to you the following release :\n\nStill.Alice.2014.DVDScr.XviD.AC3-OSCARS2014\n &lt;a href=&quot;\nhttp://www.imdb.com/title/tt3316960/&quot; rel=&quot;nofollow&quot; target=&quot;_NEW&quot;&gt;\nhttp://www.imdb.com/title/tt3316960/&lt;/a&gt;\n\n\nFormat                                   : AVI\nFormat/Info                              : Audio Video Interleave\nFile size                                : 1.47 GiB\nDuration                                 : 1h 41mn\nOverall bit rate                         : 2 076 Kbps\nWriting application                      : Lavf56.13.100\nWriting library                          : VirtualDub build 35491/release\n\nVideo\nID                                       : 0\nFormat                                   : MPEG-4 Visual\nFormat profile                           : Simple@L5\nFormat settings, BVOP                    : No\nFormat settings, QPel                    : No\nFormat settings, GMC                     : No warppoints\nFormat settings, Matrix                  : Default (H.263)\nCodec ID                                 : XVID\nCodec ID/Hint                            : XviD\nDuration                                 : 1h 41mn\nBit rate                                 : 1 744 Kbps\nWidth                                    : 720 pixels\nHeight                                   : 460 pixels\nDisplay aspect ratio                     : 1.85:1\nFrame rate                               : 29.970 fps\nColor space                              : YUV\nChroma subsampling                       : 4:2:0\nBit depth                                : 8 bits\nScan type                                : Progressive\nCompression mode                         : Lossy\nBits/(Pixel*Frame)                       : 0.176\nStream size                              : 1.24 GiB (84%)\nWriting library                          : Lavc56.12.101\n\nAudio\nID                                       : 1\nFormat                                   : AC-3\nFormat/Info                              : Audio Coding 3\nMode extension                           : CM (complete main)\nFormat settings, Endianness              : Big\nCodec ID                                 : 2000\nDuration                                 : 1h 41mn\nBit rate mode                            : Constant\nBit rate                                 : 320 Kbps\nChannel(s)                               : 6 channels\nChannel positions                        : Front: L C R, Side: L R, LFE\nSampling rate                            : 48.0 KHz\nBit depth                                : 16 bits\nCompression mode                         : Lossy\nStream size                              : 232 MiB (15%)\nAlignment                                : Aligned on interleaves\nInterleave, duration                     : 33 ms (1.00 video frame)\nInterleave, preload duration             : 512 ms",
  "parsed": {
    "xt": "urn:btih:33b5d764441e560da452c0f4717f1dab70e03ae3",
    "dn": "Still.Alice.2014.DVDScr.XviD.AC3-OSCARS2014",
    "tr": [
      "udp://exodus.desync.com:6969",
      "udp://open.demonii.com:1337",
      "udp://tracker.coppersurfer.tk:6969",
      "udp://tracker.openbittorrent.com:80"
    ],
    "infoHash": "33b5d764441e560da452c0f4717f1dab70e03ae3",
    "infoHashBuffer": {
      "type": "Buffer",
      "data": [
        51,
        181,
        215,
        100,
        68,
        30,
        86,
        13,
        164,
        82,
        192,
        244,
        113,
        127,
        29,
        171,
        112,
        224,
        58,
        227
      ]
    },
    "name": "Still.Alice.2014.DVDScr.XviD.AC3-OSCARS2014",
    "announce": [
      "udp://exodus.desync.com:6969",
      "udp://open.demonii.com:1337",
      "udp://tracker.coppersurfer.tk:6969",
      "udp://tracker.openbittorrent.com:80"
    ],
    "urlList": []
  },
  "previous": 181,
  "peers": 3,
  "last_updated": "2016-12-24T21:46:55.989Z"
}